<svg width="1024" height="1024" xmlns="http://www.w3.org/2000/svg">
 <g>
  <title>Layer 1</title>
  <path d="m537.498,563.2s1.024,19.712 71.628,8.192c0,0 -8.499,214.323 5.274,284.262c0,0 -5.274,19.815 -22.118,-48.947c-16.794,-68.761 -21.095,-85.043 -28.416,-88.576c-7.27,-3.584 -41.063,20.992 -57.856,60.57c-16.845,39.629 -26.42,87.398 -26.42,87.398s-11.161,9.37 -11.417,-5.888c-0.205,-15.155 9.318,-94.31 9.318,-94.31s-19.456,55.5 -22.784,84.48c-3.379,29.081 -10.189,2.97 -8.806,-5.94c1.331,-8.96 9.165,-48.793 -0.205,-72.601c0,0 -8.55,-4.352 -64.614,89.037c0,0 -4.71,13.926 -10.19,8.09c-5.375,-5.837 0.718,-14.797 6.094,-29.697c5.376,-15.001 29.081,-76.288 36.454,-83.763c0,0 -22.272,4.455 -34.458,-2.253c-12.185,-6.656 -27.084,-19.456 -17.561,-68.761c3.789,-19.815 4.198,-0.307 2.662,14.233c-3.072,30.67 8.09,48.128 29.287,43.008c22.272,-5.273 33.587,-24.985 33.587,-24.985l110.541,-153.549zm278.886,-271.002s-25.088,25.19 -77.568,24.474c-24.269,-0.256 -39.526,-1.69 -42.65,-11.11c-4.864,-14.797 36.762,-36.608 88.832,-33.69c0,0 -46.182,-24.064 -191.13,-12.954c-144.946,11.162 -342.732,98.919 -342.732,98.919s1.178,7.782 -17.92,-5.632c-19.098,-13.312 -42.7,-23.296 -49.51,-22.221c-6.81,1.024 -19.098,0 -21.35,28.877l-59.956,144.589s39.731,28.928 86.886,11.11c47.104,-17.766 47.207,-77.824 35.943,-97.843c0,0 6.81,-1.178 13.517,10.035c6.758,11.06 80.793,53.248 106.7,64.46c25.908,11.111 166.298,59.905 199.988,68.302c33.74,8.448 73.01,1.69 88.78,-12.8c15.77,-14.439 97.69,-103.424 118.068,-137.83c0,0 -253.184,41.164 -324.967,11.11c0,0 -11.059,5.632 -16.691,2.201c-5.632,-3.379 1.178,-23.296 6.81,-21.094s9.932,7.782 9.932,7.782s82.228,30.106 332.8,-14.438c0,0 74.24,-71.168 56.218,-102.247zm-436.531,66.1c-25.088,1.843 -25.447,-24.832 -14.95,-41.319c7.219,-11.366 45.465,-15.77 44.697,3.072c-1.126,23.962 -6.298,36.506 -29.747,38.247z" fill="#fff" id="svg_2"/>
 </g>

</svg>