<?xml version="1.0" encoding="utf-8"?>
<svg viewBox="0 0 1024 1024" xmlns="http://www.w3.org/2000/svg" width="2500" height="2500">
  <path d="M 442.1 386 L 461.6 344.5 L 476.6 385 L 492.6 387 L 492.6 401.2 L 517.1 396.2 L 499.3 345.7 L 546.8 365.7 L 535.7 399.4 L 558.8 394.2 L 579.3 344.5 L 613.1 370.8 L 579.8 396.5 L 613.1 396.3 L 621.3 422 L 600 422 L 592.5 453 L 619.8 458.7 L 628.6 483.2 L 596.1 487 L 588.6 539.2 L 570.8 550.8 L 559.5 484.8 L 538.1 483.3 L 524.8 539.6 L 506.1 550.9 L 503.9 486.9 L 487.9 485.2 L 481.6 465.7 L 474.3 475.2 L 464.3 552.2 L 424.6 524 L 450.1 516.8 L 445.4 479.7 L 431.4 491.5 L 419.4 451.5 L 447.2 447 L 443.9 419 L 435.7 417.2 L 422.4 393 Z M 291.8 429 L 97.1 286.4 L 291.8 149 Z M 507.7 290.3 L 307.1 429 L 307.1 149 Z M 288.4 445.3 L 97.1 584.3 L 97.1 306.3 Z M 291.8 459.6 L 291.8 738.3 L 97.1 596 Z M 498.1 599 L 307.1 738.3 L 307.1 459.6 Z M 510.1 612 L 511.1 892.3 L 313.8 750.3 Z M 720.4 750 L 523.8 892.3 L 523.8 612 Z M 535.8 600 L 727.5 458.7 L 728.5 738.3 Z M 937.8 597.5 L 741.1 738.3 L 741.1 458.7 Z M 937.8 305.3 L 937.8 584.3 L 745.8 444.3 Z M 937.8 287 L 741.1 429 L 741.1 149 Z M 728.5 429 L 524.8 291 L 728.5 149 Z M 377.6 252.2 C 369.7 252.2 363.3 246.7 362.9 239.8 C 346.3 242.6 340.3 247.8 327.5 254.3 C 325.9 255.1 325.5 257.3 326.8 258.6 L 337.2 274 L 342.6 268.5 L 342.6 323.6 C 342.6 326.7 345.1 329.2 348.2 329.2 L 406.4 329.2 C 409.7 329.2 412.5 326.5 412.5 323.1 L 412.5 268.4 L 417.9 273.9 L 427.6 261.2 C 429.2 259.6 429.8 254.8 427.7 253.8 C 415.4 247.6 407.5 241.7 392.3 239.8 C 391.9 246.7 385.5 252.2 377.6 252.2 Z M 204.9 326.7 C 205.1 327.1 209 333.4 216.4 333.7 C 222.4 333.9 226.3 329.9 226.9 329.3 C 227.6 330 232.5 333.9 239.4 333 C 245.8 332.1 249.3 327.6 249.9 326.7 C 250.4 327.1 256.2 330.6 261.2 328.2 C 266.6 325.5 267.2 318.3 266.2 314 C 265.6 311.5 264.6 310.7 261.7 306.5 C 261 305.5 258.2 300.7 252.6 291 C 250.3 287.1 247.6 282.3 244.4 276.7 C 245.7 270.7 246.8 265.9 247.7 262.7 C 249 257.6 249.8 255.3 248.7 252.5 C 248.3 251.6 248 251 244.9 246.2 C 247.1 241.7 247 237.7 245.1 236.4 C 244 235.6 242.4 236.1 242.1 236.2 C 239.5 237 237.6 240.3 237.6 244.4 C 236.3 244.5 233.5 244.8 230.9 246.7 C 229.2 247.9 228 249.3 227.4 250.2 C 226.4 249 224.5 246.7 221.1 245.4 C 219.4 244.7 217.8 244.4 216.6 244.4 C 216.8 240.5 215.2 237.4 212.6 236.4 C 212.2 236.3 210.8 235.7 209.6 236.3 C 207.6 237.4 207.1 241.4 208.9 246.4 C 207.9 248 206.7 250.6 206.2 253.9 C 205.4 258.8 206.4 263 207.2 265.9 C 208.6 271.3 210.1 272.5 209.7 275.7 C 209.3 278.6 207.7 280.8 206.4 282.2 C 200.2 293.3 194.1 304.5 187.9 315.7 C 186.9 320.3 188.9 325.1 192.9 327.4 C 196.6 329.7 201.3 329.4 204.9 326.7 Z M 148.6 416 C 146.1 416.4 141.9 417.5 137.9 420.4 C 133.9 423.4 132 427 130.9 428.9 C 123.9 441.8 124.8 465.9 124.9 468.2 C 125.2 469.8 126.2 473.8 129.7 477.4 C 133.6 481.5 138.4 482.4 139.9 482.6 L 199.4 482.6 C 200.8 482.5 204.9 481.8 208.6 478.4 C 212.2 475.1 213.2 471.3 213.6 469.9 C 212.8 456.5 212.3 448.1 210 438.1 C 207.3 426.3 204.6 423.2 202.7 421.4 C 198.4 417.5 193.3 416.4 190.1 416 C 189.1 403.6 178.2 394.8 167.1 396 C 157.5 397 149.4 405.4 148.6 416 Z M 258.9 636.5 L 265.4 636.5 C 265.4 636.5 264.6 607.1 265.4 602.5 C 267.1 592.5 276.5 575.5 275.4 569.3 C 273.1 556.1 260.6 547.8 258.9 548.6 C 257.2 549.4 242.4 565.9 237.9 578.1 C 233.4 590.3 225.2 607.3 223.9 607.6 C 222.6 607.9 209.4 609.6 197.4 614.1 C 186.3 618.3 177.4 622.6 179.4 626.6 C 181.4 630.6 193.2 636.6 209.7 636.6 C 229.5 636.6 236.2 635.3 239.7 620.6 C 243.2 606.1 243.5 599.3 249.9 592.6 C 250.4 592.1 254 588.4 256.2 589.3 C 256.2 589.3 256.7 589.5 258.7 592.6 Z M 334.1 633 L 421.4 633 C 422.1 632.8 423.2 632.5 424.4 631.5 C 426.2 630 426.8 627.9 426.9 627.3 L 426.9 569 C 426.5 568.2 425.8 566.7 424.4 565.5 C 422.1 563.5 419.5 563.3 418.6 563.2 L 405.1 563.2 C 404.2 561.2 402.6 560.2 398.8 555 C 397.4 553.1 395.2 552.6 393.8 552 L 361.6 552 C 360.5 552.6 358.6 553 357.8 554.5 C 355.1 559.7 352.6 561.1 351.8 563.3 C 345.9 563.5 339.9 563.8 334 564.1 C 333.3 564.2 332 564.6 330.7 565.8 C 329 567.5 328.7 569.5 328.7 570 L 328.7 627.7 C 328.8 628.4 329.4 630.1 331 631.5 C 332.3 632.5 333.5 632.9 334.1 633 Z M 443.4 690 L 438.2 696.7 L 448.9 696.7 Z M 388.9 748.5 C 391 747.3 395.7 744.8 402.5 744.5 C 409.3 744.5 414.3 747.1 416.3 748.3 C 418.2 747 421.7 745.1 426.5 744.3 C 431.7 743.5 435.9 744.4 438.2 745.1 L 436.9 783.9 C 437.8 782.6 435.2 786.8 433.9 787.7 C 431.4 789.4 426.2 788.1 424.7 785.2 C 423.7 783.5 424.8 782.6 423.9 780.2 C 423.3 778.4 421.4 775.3 418.7 775.2 C 415.7 775.1 413.7 778.6 413.5 779 C 413.5 779 412.6 780.7 412.5 782.7 C 412.4 787.1 416.2 797.1 425.7 800 C 432.8 802.2 440.3 799.6 444.8 794.9 C 447.1 792.5 448.3 789.8 448.9 788 L 448.9 745.5 C 451 744.7 454.5 743.9 458.7 744.2 C 464.7 744.6 469 747.1 471 748.4 C 473 747.1 477.6 744.8 483.7 744.6 C 490.202 744.42 495.073 746.604 497.503 747.987 C 496.443 746.281 497.298 739.327 491.7 727.7 C 488.9 722 485.2 718.6 480.9 714.7 C 479.7 713.6 472.4 707.1 463.1 703.4 C 448.6 697.6 427.7 698.5 411.2 710.5 C 392.5 724.1 389.4 744.7 388.9 748.5 Z M 498.2 748.4 C 497.996 748.274 497.764 748.135 497.503 747.987 C 497.674 748.261 497.895 748.4 498.2 748.4 Z M 557.8 782 C 557.8 786.6 561.6 790.3 566.1 790.3 L 615.1 790.3 C 619 790.3 622.1 787.1 622.1 783.3 L 622.1 732.3 C 622.1 729.4 619.7 726.9 616.7 726.9 L 562.8 726.9 C 560.1 727 557.8 729.3 557.8 732.2 Z M 618.6 719 C 620.2 719 621.6 717.9 621.8 716.4 C 622 714.7 621.3 712.8 617 712.8 L 562.9 712.8 C 561.1 712.8 559.7 714.2 559.7 715.9 C 559.6 717.6 561.1 719 562.9 719 Z M 615.2 712.7 C 615.2 712.7 613.104 701.771 595.7 698.889 L 595.7 695 C 595.7 693.5 594.5 692.3 593 692.3 L 588.7 692.3 C 587.2 692.3 586 693.5 586 695 L 586 698.204 C 572.461 698.48 565.4 712.7 565.4 712.7 Z M 644.9 563 C 647.6 561.2 653.9 557.5 662.7 557 C 673.7 556.4 681.6 561.2 684.2 563 L 680 547.8 C 679.4 545.5 677.3 544 675 544 L 653.5 544 C 651.4 544 649.6 545.4 649.1 547.4 Z M 684.1 629.8 C 681.4 631.6 675.1 635.3 666.3 635.8 C 655.3 636.4 647.4 631.6 644.8 629.8 L 649 645 C 649.6 647.3 651.7 648.8 654 648.8 L 675.5 648.8 C 677.6 648.8 679.4 647.4 679.9 645.4 Z M 632.9 595.9 C 632.9 613.2 646.9 627.3 664.3 627.3 C 681.7 627.3 695.7 613.3 695.7 595.9 C 695.7 578.6 681.7 564.5 664.3 564.5 C 646.9 564.5 632.9 578.5 632.9 595.9 C 632.9 595.8 632.9 595.9 632.9 595.9 Z M 782.3 556.3 C 783.6 556.3 784.6 555.2 784.6 553.9 L 784.6 542.2 C 784.6 540.9 783.5 539.8 782.2 539.8 L 779 539.8 C 777.7 539.8 776.6 540.9 776.6 542.2 L 776.6 553.9 C 776.6 555.2 777.7 556.3 779 556.3 Z M 812.7 553.7 L 812.7 539.5 C 812.7 538 811.5 536.9 810.1 536.9 L 806.6 536.9 C 805.1 536.9 804 538.1 804 539.5 L 804 553.7 C 804 555.2 805.2 556.3 806.6 556.3 L 810.1 556.3 C 811.5 556.3 812.6 555.1 812.7 553.7 Z M 840.8 553.6 L 840.8 542.4 C 840.8 540.9 839.6 539.7 838.1 539.7 L 834.5 539.7 C 833 539.7 831.8 540.9 831.8 542.4 L 831.8 553.6 C 831.8 555.1 833 556.3 834.5 556.3 L 838.1 556.3 C 839.6 556.3 840.8 555.1 840.8 553.6 Z M 848.6 633.5 L 848.6 622.9 C 848.6 622.9 856.6 622.9 863.1 617.7 C 869.3 612.8 872.1 602.1 866.6 593 C 862.661 586.407 852.451 584.081 848.6 583.422 L 848.6 567.4 C 848.6 565.8 847.3 564.5 845.7 564.5 L 772.3 564.5 C 770.5 564.5 769.1 565.9 769.1 567.7 L 769.1 633.7 C 769.1 638.1 772.6 641.7 777.1 641.7 L 840.3 641.7 C 844.9 641.7 848.6 638 848.6 633.5 Z M 848.6 615.4 L 848.6 591.168 C 852 591.904 860.077 594.427 861.1 601.9 C 862.4 611.4 848.6 615.4 848.6 615.4 Z M 810.2 448.8 C 813.5 454.5 821 462.7 829.6 468.3 C 841 475.8 850.3 474.3 850.3 474.3 C 850.3 474.3 864.5 487.3 868.8 488.3 C 873.1 489.3 874.3 487 874.3 483.5 L 874.3 469.5 C 874.3 469.5 884.3 465.7 889.5 460.5 C 894.7 455.3 897.7 451.7 900.8 452.8 C 903.9 453.9 911.3 464.1 917.1 465.1 C 922.9 466.1 927.1 462.6 925.1 456.6 C 923.1 450.6 919.6 444.9 919.6 444.9 C 919.6 444.9 925.6 436.8 925.6 431.1 C 925.6 425.3 919.8 420.9 914.6 423.6 C 909.4 426.3 903.6 435.6 900.1 435.6 C 896.6 435.6 889.4 425.9 882.3 422.8 C 875.2 419.7 873.8 418.6 873.8 418.6 C 873.8 418.6 875.5 403.6 873.8 401.3 C 872.1 399 865.6 401.5 861.5 404.6 C 857.4 407.7 850.5 414.8 850.5 414.8 C 850.5 414.8 838 414.6 823.5 424.6 C 817.2 429 812.6 436.3 810.1 440.9 C 808.7 443.3 808.8 446.3 810.2 448.8 Z M 809.2 334.8 C 832.7 334.8 851.9 315.7 851.9 292.2 L 851.9 292.1 C 851.9 268.5 832.8 249.4 809.3 249.4 C 785.8 249.4 766.6 268.5 766.6 292.1 C 766.6 315.7 785.7 334.8 809.2 334.8 Z M 787.1 243.3 C 797.1 250.8 806.6 245.3 806.6 245.3 C 806.6 245.3 805.5 231 795.3 226.8 C 787.5 223.6 776.8 226 776.8 226 C 776.8 226 777.1 235.8 787.1 243.3 Z M 832.7 231.1 C 832.7 231.1 824.6 229.3 818.7 231.7 C 811 234.9 810.2 245.7 810.2 245.7 C 810.2 245.7 817.4 249.9 825 244.2 C 832.6 238.5 832.7 231.1 832.7 231.1 Z M 687 329.4 C 687.4 329.4 687.5 328.9 687.2 328.7 C 685.3 327.6 681.1 325.4 676.1 323.5 C 669.1 321 667.1 319.3 667.1 319.3 L 667.1 304.4 C 667.1 304.4 676.1 296.8 682.1 292.2 C 688.1 287.6 697.8 274.8 697.8 264.1 C 697.8 253.4 693.8 236.2 693.8 236.2 L 634.1 236.2 C 634.1 236.2 629.9 260 632.1 270 C 635.9 282.7 647.1 292 652.8 297.2 C 658.5 302.4 661.3 304.7 661.3 304.7 L 661.3 320 L 643 328.3 C 642.5 328.5 642.6 329.4 643.2 329.4 Z M 484.1 407.8 L 476.4 418 L 472.4 446.8 L 496.4 445.4 L 489.1 461.3 L 513.1 452.8 L 507.7 427.8 L 491.6 423.3 Z M 539.9 456.8 L 567.4 451.5 L 564.6 423 L 544.3 427.5 Z M 169.6 403.7 C 180.7 403.7 183.4 415.7 183.4 415.7 L 155.9 415.7 C 155.9 415.7 158.5 403.7 169.6 403.7 Z" fill="#fff"/>
</svg>