<svg width="1021.992" height="1024" xmlns="http://www.w3.org/2000/svg">

 <g>
  <title>Layer 1</title>
  <path id="svg_3" fill="#111" d="m1.004,138.541l0,678.651l0,-678.651zm95.372,877.428c15.06,4.015 28.11,6.023 42.165,6.023c-14.055,0 -27.106,-2.008 -42.165,-6.023z"/>
  <g id="svg_7" fill="#111">
   <path fill="#ffffff" id="svg_8" d="m48.184,985.90576c-28.11,-26.102 -47.184,-62.243 -47.184,-102.4l0,-68.267l0,68.267c0,40.157 17.067,76.298 47.184,102.4zm48.188,30.118c-19.074,-6.024 -36.14,-15.06 -51.2,-30.118c15.06,13.051 35.138,23.09 51.2,30.118z"/>
   <path fill="#ffffff" id="svg_9" d="m977.816,683.72476c-40.157,-23.09 -81.318,19.075 -87.342,28.11c-53.207,61.24 -112.439,135.53 -218.854,135.53l-319.248,0c-106.415,0 -163.639,-76.298 -218.854,-136.534c-8.032,-8.03 -47.185,-51.2 -87.342,-28.11c-36.14,22.087 -43.168,88.346 -45.176,132.518l0,70.275c0,40.157 17.067,76.298 47.184,102.4c15.06,13.05 32.126,23.09 51.2,30.117c-6.023,-13.05 -11.043,-28.11 -11.043,-45.176c0,-59.231 47.184,-110.431 106.416,-112.44c2.008,-2.007 4.015,-2.007 6.023,-2.007s4.016,0 6.024,2.008c59.231,2.008 106.416,53.208 106.416,112.439c0,19.075 -4.016,36.141 -13.051,51.2l421.647,0c-8.032,-15.059 -13.051,-32.125 -13.051,-51.2c0,-59.231 47.184,-110.431 106.415,-112.44c2.008,-2.007 4.016,-2.007 6.024,-2.007s4.016,0 6.023,2.008c59.232,2.008 106.416,53.208 106.416,112.439c0,15.059 -4.016,30.118 -11.043,45.176c19.074,-6.023 38.149,-17.066 53.208,-30.117c28.11,-25.098 45.176,-61.24 45.176,-100.392l0,-70.275c0,-46.18 -7.027,-112.44 -43.168,-133.521l0,-0.001zm-433.695,279.09l-11.043,15.06c-6.023,6.023 -11.043,15.058 -13.05,19.074c-2.008,2.008 -4.016,4.016 -8.032,4.016s-6.024,-2.008 -6.024,-2.008c-4.015,-4.016 -8.03,-13.051 -13.05,-19.075l-13.051,-17.066c-6.024,-8.032 0,-15.059 11.043,-15.059l42.164,0c13.051,0 17.067,6.023 11.043,15.059l0,-0.001z"/>
   <path fill="#ffffff" id="svg_10" d="m829.236,858.40776l-13.052,0c-17.066,8.031 -30.117,55.216 -30.117,112.44c0,19.074 2.007,36.14 4.015,51.2l66.26,0c2.007,-15.06 4.015,-32.126 4.015,-51.2c-1.004,-57.224 -14.055,-104.409 -31.122,-112.44l0.001,0zm-621.428,0l-13.052,0c-17.067,8.031 -32.126,55.216 -32.126,112.44c0,19.074 2.008,36.14 4.016,51.2l66.259,0c2.008,-15.06 4.015,-32.126 4.015,-51.2c0,-57.224 -12.047,-104.409 -29.113,-112.44l0.001,0z"/>
  </g>
  <path id="svg_11" fill="#fff" d="m304.874,359.578l177.885,0l0,-46.299l-182.759,0l0,-98.69l165.701,0l0,-48.735l-377.7,0l0,46.299l165.7,0l0,98.69l-183.975,0l0,46.298l177.884,0c-18.276,69.448 -74.322,129.15 -177.885,188.85l23.15,41.426c64.574,-36.552 144.987,-90.161 186.413,-173.012c9.747,20.713 23.15,41.426 41.425,62.138c34.115,38.989 80.414,74.322 144.988,110.874l23.15,-41.426c-108.437,-57.264 -165.701,-116.965 -183.977,-186.413zm411.815,-80.414l46.3,0l0,-38.988l101.125,0l0,38.988l46.3,0l0,-38.988l46.298,0l0,-46.299l-46.299,0l0,-28.023l-46.299,0l0,30.46l-101.126,0l0,-30.46l-46.298,0l0,30.46l-43.862,0l0,46.299l43.862,0l-0.001,36.551zm-93.816,-90.16c-25.586,-25.587 -67.011,-25.587 -90.16,-23.15l-4.874,0l0,46.299l7.31,0c15.84,0 43.862,0 57.265,9.747c2.436,2.437 7.31,7.31 7.31,23.15l0,15.838l-71.885,43.862l23.15,41.426l48.735,-28.023l0,51.172l-71.885,43.862l23.15,41.425l48.735,-28.023l0,38.989c0,9.747 -4.874,28.023 -13.402,36.551c-23.15,28.023 -59.701,48.736 -59.701,48.736l23.15,41.425c2.436,0 46.298,-25.586 71.884,-59.7c13.402,-18.277 23.15,-43.863 23.15,-67.012l0,-216.874c-1.219,-25.586 -8.53,-43.862 -21.932,-59.7zm48.736,121.838l0,212c0,38.988 30.46,69.448 69.448,69.448l144.988,0c38.989,0 69.449,-30.46 69.449,-69.448l0,-212l-283.885,0zm119.402,232.713l-48.735,0c-13.403,0 -23.15,-9.748 -23.15,-23.15l0,-46.299l71.885,0l0,69.449zm0,-116.966l-71.885,0l0,-69.448l71.885,0l0,69.448zm119.402,96.253c0,13.402 -9.747,23.15 -23.15,23.15l-48.735,0l0,-71.886l71.885,0l0,48.736zm0,-96.253l-71.885,0l0,-69.448l71.885,0l0,69.448z"/>
 </g>
</svg>