<svg width="300" height="300" xmlns="http://www.w3.org/2000/svg">

 <g>
  <title>Layer 1</title>
  <g id="svg_2" fill="#FFF">
   <path id="svg_3" d="m200.803,111.88c-24.213,1.265 -45.268,8.605 -62.362,25.188c-17.271,16.754 -25.154,37.284 -23,62.734c-9.464,-1.172 -18.084,-2.462 -26.753,-3.192c-2.994,-0.252 -6.547,0.106 -9.083,1.537c-8.418,4.75 -16.487,10.113 -26.053,16.093c1.755,-7.938 2.891,-14.89 4.902,-21.575c1.479,-4.914 0.794,-7.648 -3.733,-10.85c-29.066,-20.521 -41.318,-51.231 -32.149,-82.85c8.483,-29.25 29.315,-46.989 57.621,-56.236c38.636,-12.62 82.055,0.253 105.547,30.927c8.485,11.08 13.688,23.516 15.063,38.224zm-111.437,-9.852c0.223,-5.783 -4.788,-10.993 -10.74,-11.167c-6.094,-0.179 -11.106,4.478 -11.284,10.483c-0.18,6.086 4.475,10.963 10.613,11.119c6.085,0.154 11.186,-4.509 11.411,-10.435zm58.141,-11.171c-5.974,0.11 -11.022,5.198 -10.916,11.004c0.109,6.018 5.061,10.726 11.204,10.652c6.159,-0.074 10.83,-4.832 10.771,-10.977c-0.05,-6.032 -4.98,-10.79 -11.059,-10.679z"/>
   <path id="svg_4" d="m255.201,262.83c-7.667,-3.414 -14.7,-8.536 -22.188,-9.318c-7.459,-0.779 -15.3,3.524 -23.104,4.322c-23.771,2.432 -45.067,-4.193 -62.627,-20.432c-33.397,-30.891 -28.625,-78.254 10.014,-103.568c34.341,-22.498 84.704,-14.998 108.916,16.219c21.129,27.24 18.646,63.4 -7.148,86.284c-7.464,6.623 -10.149,12.073 -5.36,20.804c0.883,1.612 0.984,3.653 1.497,5.689zm-87.274,-84.499c4.881,0.005 8.9,-3.815 9.085,-8.636c0.195,-5.104 -3.91,-9.385 -9.021,-9.406c-5.061,-0.023 -9.3,4.318 -9.123,9.346c0.166,4.804 4.213,8.69 9.059,8.696zm56.261,-18.022c-4.735,-0.033 -8.76,3.844 -8.953,8.629c-0.205,5.117 3.772,9.319 8.836,9.332c4.898,0.017 8.769,-3.688 8.946,-8.562c0.19,-5.129 -3.789,-9.364 -8.829,-9.399z"/>
  </g>
 </g>
</svg>