<svg width="256" height="256" xmlns="http://www.w3.org/2000/svg">

 <g>
  <title>Layer 1</title>
  <path id="svg_3" d="m50.17,91.44l13.63,0c0.13,20.19 0.08,40.39 0.09,60.58c0.07,4.13 -1,8.72 -4.51,11.3c-3.86,3 -9,2 -13.54,2.17c-1.8,-3.87 -3.54,-7.77 -5.15,-11.73c2.4,0 4.8,0.06 7.19,-0.08a2.1,2.1 0 0 0 2.13,-2.6c0.1,-19.89 -0.01,-39.77 0.16,-59.64zm56.08,-0.9c4.68,-0.07 9.36,0 14,0c-2.44,6.23 -5.9,12.1 -7.8,18.5c3.92,1.66 8.75,0.27 13,0.77c-3.49,8.16 -7.39,16.15 -10.68,24.41c3,0.61 6.16,0.39 9.25,0.39c-1.7,3.89 -3.44,7.75 -5.17,11.62c-5.3,-0.09 -10.61,0.22 -15.9,-0.14c-2.92,0 -5.59,-3 -4.52,-5.92c1.93,-5.92 4.94,-11.41 7.23,-17.19c-3.3,-0.22 -7.25,0.72 -9.94,-1.72c-2.1,-2.09 -0.88,-5.15 0.11,-7.46q5.31,-11.6 10.42,-23.26zm72.75,0.05l13.84,0l0,5.2c6.64,-0.26 14.37,-0.24 19.17,5.14c5.15,5.69 3.48,13.9 3.78,20.88c5,0.09 10.59,1.27 13.68,5.61c3.63,5.12 2.2,11.73 2.49,17.58c-0.19,5.57 1.19,12.3 -3.41,16.56c-4.84,5.23 -12.6,3.63 -18.95,4c-1.93,-3.91 -3.58,-7.94 -5.28,-11.95c3.86,-0.11 7.72,0.15 11.57,-0.13a2.26,2.26 0 0 0 2.12,-2.39a110.67,110.67 0 0 0 0,-11.08c0.07,-2.61 -2.64,-4.27 -5,-4.07c-6.74,-0.1 -13.47,0 -20.21,0l0,29.57l-13.85,0l0,-29.59l-13.84,0l0,-13.9c4.6,0 9.21,0 13.81,-0.07q0.13,-6 0,-12.08c-3.06,-0.05 -6.12,-0.09 -9.19,-0.06l0,-13.93l9.18,0l0.09,-5.29zm13.77,19.18q0,6.1 0.09,12.2l9.34,0c0,-3.66 0.24,-7.33 -0.14,-11c-2.29,-2.42 -6.29,-0.77 -9.29,-1.2z" fill="#fff"/>
  <path id="svg_4" d="m129.58,95.81l31.72,0l0,13.93l-8.72,0l0,41.77c4.45,0.05 8.91,0 13.36,0.05l0,13.9l-46.44,0c2.09,-4.64 4.19,-9.28 6.34,-13.9c4.15,0 8.31,0 12.46,-0.05l0,-41.74l-8.69,0q-0.06,-7 -0.03,-13.96zm91.35,1.28c3.5,-2.9 9.31,-1 10.62,3.27c1.67,3.92 -1.46,8.77 -5.62,9.15c-2.59,0.23 -5.19,0.1 -7.78,0.09c0.17,-4.19 -1.1,-9.6 2.78,-12.51zm-193.93,12.63c4.57,0 9.13,0.07 13.69,-0.11c-0.28,7.81 -1.15,15.6 -1.64,23.4c-0.58,9.17 -2.66,18.61 -8.26,26.1c-2.5,-5.28 -4.84,-10.63 -7.18,-16a22.12,22.12 0 0 0 1.32,-6.06c0.63,-9.05 1.34,-18.21 2.07,-27.33zm46.1,0l13.83,0c0.7,9.09 1.42,18.18 2.08,27.27a21.67,21.67 0 0 0 1.32,6.15c-2.34,5.35 -4.7,10.69 -7.17,16c-5.18,-6.91 -7.37,-15.55 -8.1,-24s-1.29,-16.96 -1.96,-25.42zm17.16,54.69q3.17,-7 6.4,-13.95c7.13,1.83 14.53,0.79 21.8,1.07c-2.08,4.66 -4.21,9.3 -6.35,13.93c-7.27,-0.39 -14.77,1.04 -21.85,-1.05z" fill="#fff"/>
 </g>
</svg>