<?xml version="1.0" encoding="UTF-8"?>
<svg id="_图层_1" data-name="图层_1" xmlns="http://www.w3.org/2000/svg" version="1.1" viewBox="0 0 455.13 107.88">
  <!-- Generator: Adobe Illustrator 30.1.0, SVG Export Plug-In . SVG Version: 2.1.1 Build 136)  -->
  <defs>
    <style>
      .st0 {
        fill: #fff;
      }

      .st1 {
        fill: #2d9ed0;
      }
    </style>
  </defs>
  <rect width="455.13" height="107.88"/>
  <g>
    <polygon class="st1" points="408.32 29.92 392.15 50.94 385.29 43.39 370.57 76.34 386.74 55.32 393.6 62.88 408.32 29.92"/>
    <g>
      <rect class="st0" x="326.33" y="42.43" width="2.78" height="21.78"/>
      <rect class="st0" x="414.36" y="51.93" width="24.55" height="2.78"/>
      <rect class="st0" x="414.36" y="61.43" width="24.56" height="2.78"/>
      <rect class="st0" x="414.36" y="42.43" width="24.56" height="2.78"/>
      <rect class="st0" x="414.36" y="53.05" width="2.95" height="9.5"/>
      <rect class="st0" x="341.46" y="51.93" width="24.55" height="2.78"/>
      <rect class="st0" x="341.46" y="61.43" width="24.56" height="2.78"/>
      <rect class="st0" x="341.46" y="42.43" width="24.56" height="2.78"/>
      <rect class="st0" x="341.46" y="53.05" width="2.95" height="9.5"/>
      <path class="st0" d="M314.36,46.54c-.36-.82-.85-1.51-1.45-2.15-.64-.6-1.33-1.09-2.15-1.45-.82-.33-1.72-.51-2.66-.51h-19.76v2.78h18.74c.69,0,1.36.12,2,.36.6.27,1.15.6,1.6,1.06.45.45.79,1,1.06,1.63.24.64.36,1.33.36,2.09v6.08c0,.76-.12,1.42-.39,2.03-.27.61-.64,1.12-1.09,1.57-.45.45-1,.79-1.6,1.03-.64.24-1.3.36-2,.36h-18.68v2.78h19.76c.94,0,1.84-.18,2.66-.54.82-.33,1.51-.82,2.15-1.45.6-.6,1.09-1.33,1.45-2.15.33-.82.51-1.69.51-2.63v-8.23c0-.94-.18-1.84-.51-2.66"/>
      <rect class="st0" x="288.33" y="51.93" width="2.95" height="10.62"/>
      <polygon class="st0" points="233.23 45.21 232.93 45.21 219.7 64.21 216.5 64.21 231.32 42.43 234.83 42.43 249.69 64.21 246.45 64.21 233.23 45.21"/>
      <path class="st0" d="M201.51,54.8h-23v-2.99h23c1.53,0,2.77-1.62,2.77-3.61s-1.24-3.61-2.77-3.61h-23v-2.99h23c3.18,0,5.76,2.96,5.76,6.6s-2.58,6.6-5.76,6.6"/>
      <polygon class="st0" points="199.41 53.25 195.66 53.25 203.46 64.19 207.27 64.19 199.41 53.25"/>
      <rect class="st0" x="178.51" y="54.12" width="2.78" height="10.09"/>
      <path class="st0" d="M263.4,57.06v7.06h2.78v-7.01c-.93-.02-1.86-.04-2.78-.05"/>
      <polygon class="st0" points="273.3 42.33 264.79 54.56 256.29 42.33 253.05 42.33 263.04 56.99 263.07 57.03 264.79 59.56 266.51 57.03 266.55 56.99 276.54 42.33 273.3 42.33"/>
    </g>
    <g>
      <rect class="st0" x="16.17" y="39.91" width="26.93" height="2.1"/>
      <rect class="st0" x="65.24" y="40.58" width="5.46" height="2.1"/>
      <rect class="st0" x="75.34" y="49.62" width="20.32" height="2.1"/>
      <rect class="st0" x="17.04" y="59.16" width="25.2" height="2.1"/>
      <rect class="st0" x="28.57" y="41.88" width="2.1" height="10.84"/>
      <rect class="st0" x="83.94" y="39.51" width="2.1" height="19.61"/>
      <path class="st0" d="M91.73,59.31h-17.33v-13.08h2.1v10.99h15.23c1.21,0,2.2-1,2.2-2.23v-10.34l-19.58-.09v-2.1s21.67.1,21.67.1v12.43c0,2.39-1.93,4.33-4.3,4.33Z"/>
      <path class="st0" d="M88.33,66.07c-1.77,0-3.85-.03-6.25-.09-11.44-.32-13.89-5.28-13.99-5.49l-.1-.21v-11.74h-4.29v-2.1h6.39v13.32c.51.74,3.21,3.89,12.05,4.13,10.67.3,14.8-.23,14.84-.23l.28,2.08c-.13.02-2.66.34-8.92.34Z"/>
      <rect class="st0" x="14.45" y="47.52" width="2.1" height="5.19"/>
      <path class="st0" d="M39.65,65.79h-23.63l.02-11.15h27.25v7.52c0,2-1.63,3.64-3.64,3.64ZM18.12,63.69h21.53c.85,0,1.54-.69,1.54-1.54v-5.42h-23.07v6.95Z"/>
      <rect class="st0" x="28.6" y="56.51" width="2.1" height="7.41"/>
      <rect class="st0" x="18.26" y="50.95" width="8.66" height="1.64"/>
      <rect class="st0" x="18.24" y="47.65" width="8.66" height="1.64"/>
      <rect class="st0" x="32.37" y="50.95" width="8.58" height="1.64"/>
      <rect class="st0" x="32.35" y="47.65" width="8.58" height="1.64"/>
      <polygon class="st0" points="44.83 52.71 42.73 52.71 42.73 45.98 14.44 45.98 14.44 43.89 44.83 43.89 44.83 52.71"/>
      <rect class="st0" x="119.21" y="45.55" width="21" height="2.1"/>
      <path class="st0" d="M139.6,56.94h-24.55v-13.14h2.1v11.04h22.45c1.53,0,2.77-1.14,2.77-2.55v-10.29h-27.36v-2.1h29.45v12.39c0,2.56-2.18,4.65-4.87,4.65Z"/>
      <path class="st0" d="M119.23,53.55l-.15-2.09c9.33-.66,9.59-6.68,9.55-7.88v-.63s2.1,0,2.1,0v.55c.03.94,0,9.23-11.49,10.05Z"/>
      <path class="st0" d="M140.2,53.61c-6.45-.06-10.26-3.33-11.08-6.34l2.02-.55c.64,2.34,3.96,4.74,9.08,4.79l-.02,2.1Z"/>
      <path class="st0" d="M115.18,65.81l-1.89-.92c1.58-3.24,2.11-5.86,2.12-5.88l2.06.41c-.02.12-.58,2.9-2.29,6.4Z"/>
      <path class="st0" d="M144.96,65.78c-.52-2.18-2.52-6.05-2.54-6.09l1.86-.97c.09.17,2.14,4.14,2.72,6.57l-2.04.49Z"/>
      <path class="st0" d="M134.4,61.22c-2.31-.29-8.02-.08-8.08-.08l-.08-2.1c.24,0,5.94-.22,8.41.09l-.26,2.08Z"/>
      <path class="st0" d="M124.54,65.87c-1.57,0-2.76-.42-3.55-1.25-.84-.89-.89-1.92-.89-2.21l-.12-3.27,2.1-.07.12,3.35v.05h0s0,.4.34.74c.37.38,1.07.58,2,.58,2.16,0,5.01-.04,7.31-.08,1.69-.02,3.14-.05,3.94-.05,1.49,0,2.26-.93,2.34-1.18.17-.57.41-1.95.49-2.43l2.07.34c-.03.19-.32,1.87-.55,2.67-.39,1.32-2.12,2.69-4.35,2.69-.79,0-2.23.02-3.91.05-2.3.03-5.17.08-7.34.08Z"/>
      <path class="st0" d="M64.73,66.31l-1.55-1.41s4.4-4.85,5.07-5.58l1.54,1.42c-.67.73-5.06,5.56-5.06,5.57Z"/>
    </g>
    <rect class="st0" x="162.28" y="40.84" width="1.26" height="24.13"/>
  </g>
</svg>