<?xml version="1.0" encoding="utf-8"?>
<svg id="_图层_1" data-name="图层_1" xmlns="http://www.w3.org/2000/svg" version="1.1" viewBox="0 0 286.92 98.7">
  <defs>
    <style>
      .st0 {
        fill: #fff;
      }
    </style>
  </defs>
  <g>
    <polygon class="st0" points="226.14 28.67 211.72 47.4 205.62 40.67 192.49 70.04 206.9 51.3 213.01 58.03 226.14 28.67"/>
    <g>
      <rect class="st0" x="153.07" y="38.19" width="2.48" height="19.41"/>
      <rect class="st0" x="231.52" y="46.65" width="21.88" height="2.48"/>
      <rect class="st0" x="231.52" y="55.12" width="21.88" height="2.48"/>
      <rect class="st0" x="231.52" y="38.19" width="21.88" height="2.48"/>
      <rect class="st0" x="231.52" y="47.65" width="2.63" height="8.47"/>
      <rect class="st0" x="166.55" y="46.65" width="21.88" height="2.48"/>
      <rect class="st0" x="166.55" y="55.12" width="21.88" height="2.48"/>
      <rect class="st0" x="166.55" y="38.19" width="21.88" height="2.48"/>
      <rect class="st0" x="166.55" y="47.65" width="2.63" height="8.47"/>
      <path class="st0" d="M142.4,41.86c-.32-.73-.76-1.35-1.29-1.91-.57-.54-1.19-.97-1.91-1.29-.73-.3-1.54-.46-2.37-.46h-17.61v2.48h16.7c.62,0,1.21.11,1.78.32.54.24,1.02.54,1.43.94.4.4.7.89.94,1.46.22.57.32,1.19.32,1.86v5.42c0,.67-.11,1.27-.35,1.81-.24.54-.57,1-.97,1.4-.4.4-.89.7-1.43.92-.57.22-1.16.32-1.78.32h-16.64v2.48h17.61c.84,0,1.64-.16,2.37-.48.73-.3,1.35-.73,1.91-1.29.54-.54.97-1.19,1.29-1.91.3-.73.46-1.51.46-2.35v-7.33c0-.84-.16-1.64-.46-2.37"/>
      <rect class="st0" x="119.21" y="46.65" width="2.63" height="9.47"/>
      <polygon class="st0" points="70.11 40.67 69.84 40.67 58.05 57.6 55.2 57.6 68.41 38.19 71.54 38.19 84.78 57.6 81.89 57.6 70.11 40.67"/>
      <path class="st0" d="M41.84,49.22h-20.5v-2.66h20.5c1.36,0,2.47-1.44,2.47-3.21s-1.11-3.21-2.47-3.21h-20.5v-2.66h20.5c2.83,0,5.13,2.64,5.13,5.88s-2.3,5.88-5.13,5.88"/>
      <polygon class="st0" points="39.97 47.83 36.63 47.83 43.58 57.58 46.97 57.58 39.97 47.83"/>
      <rect class="st0" x="21.35" y="48.61" width="2.48" height="8.99"/>
      <path class="st0" d="M96.99,51.23v6.29h2.48v-6.25c-.83-.02-1.65-.04-2.48-.05"/>
      <polygon class="st0" points="105.82 38.11 98.23 49 90.65 38.11 87.77 38.11 96.67 51.16 96.7 51.2 98.23 53.45 99.77 51.2 99.8 51.16 108.7 38.11 105.82 38.11"/>
    </g>
  </g>
</svg>