<?xml version="1.0" encoding="UTF-8"?>
<svg id="_图层_1" data-name="图层_1" xmlns="http://www.w3.org/2000/svg" version="1.1" viewBox="0 0 293.2 100.48">
  <!-- Generator: Adobe Illustrator 30.1.0, SVG Export Plug-In . SVG Version: 2.1.1 Build 136)  -->
  <defs>
    <style>
      .st0 {
        fill: #fff;
      }

      .st1 {
        fill: #2d9ed0;
      }
    </style>
  </defs>
  <rect x="-1.34" y="-3.62" width="294.53" height="107.88"/>
  <g>
    <g>
      <polygon class="st1" points="224.61 48.07 212.87 63.34 207.89 57.85 197.19 81.79 208.94 66.52 213.92 72 224.61 48.07"/>
      <g>
        <rect class="st0" x="165.07" y="55.83" width="2.02" height="15.82"/>
        <rect class="st0" x="229" y="62.73" width="17.83" height="2.02"/>
        <rect class="st0" x="229" y="69.63" width="17.83" height="2.02"/>
        <rect class="st0" x="229" y="55.83" width="17.83" height="2.02"/>
        <rect class="st0" x="229" y="63.54" width="2.14" height="6.9"/>
        <rect class="st0" x="176.05" y="62.73" width="17.83" height="2.02"/>
        <rect class="st0" x="176.05" y="69.63" width="17.83" height="2.02"/>
        <rect class="st0" x="176.05" y="55.83" width="17.83" height="2.02"/>
        <rect class="st0" x="176.05" y="63.54" width="2.14" height="6.9"/>
        <path class="st0" d="M156.37,58.82c-.26-.59-.62-1.1-1.05-1.56-.46-.44-.97-.79-1.56-1.05-.59-.24-1.25-.37-1.93-.37h-14.35v2.02h13.61c.5,0,.99.09,1.45.26.44.2.83.44,1.16.77.33.33.57.73.77,1.19.18.46.26.97.26,1.52v4.42c0,.55-.09,1.03-.29,1.47-.2.44-.46.81-.79,1.14-.33.33-.73.57-1.16.75-.46.18-.95.26-1.45.26h-13.56v2.02h14.35c.68,0,1.34-.13,1.93-.4.59-.24,1.1-.59,1.56-1.06.44-.44.79-.97,1.05-1.56.24-.59.37-1.23.37-1.91v-5.98c0-.68-.13-1.34-.37-1.93"/>
        <rect class="st0" x="137.47" y="62.73" width="2.14" height="7.71"/>
        <polygon class="st0" points="97.45 57.85 97.23 57.85 87.63 71.65 85.3 71.65 96.07 55.83 98.62 55.83 109.41 71.65 107.05 71.65 97.45 57.85"/>
        <path class="st0" d="M74.42,64.82h-16.7v-2.17h16.7c1.11,0,2.01-1.18,2.01-2.62s-.9-2.62-2.01-2.62h-16.7v-2.17h16.7c2.31,0,4.18,2.15,4.18,4.79s-1.88,4.79-4.18,4.79"/>
        <polygon class="st0" points="72.89 63.69 70.17 63.69 75.84 71.63 78.6 71.63 72.89 63.69"/>
        <rect class="st0" x="57.71" y="64.32" width="2.02" height="7.33"/>
        <path class="st0" d="M119.37,66.45v5.13h2.02v-5.09c-.67-.02-1.35-.03-2.02-.04"/>
        <polygon class="st0" points="126.55 55.76 120.38 64.64 114.2 55.76 111.85 55.76 119.1 66.4 119.13 66.44 120.38 68.27 121.63 66.44 121.65 66.4 128.91 55.76 126.55 55.76"/>
      </g>
    </g>
    <g>
      <rect class="st0" x="101.38" y="26.67" width="21.24" height="1.65"/>
      <rect class="st0" x="140.07" y="27.2" width="4.31" height="1.65"/>
      <rect class="st0" x="148.03" y="34.33" width="16.02" height="1.65"/>
      <rect class="st0" x="102.06" y="41.85" width="19.87" height="1.65"/>
      <rect class="st0" x="111.15" y="28.23" width="1.65" height="8.55"/>
      <rect class="st0" x="154.81" y="26.35" width="1.65" height="15.46"/>
      <path class="st0" d="M160.95,41.97h-13.66v-10.32h1.65v8.66h12c.96,0,1.74-.79,1.74-1.76v-8.15l-15.43-.07v-1.65s17.09.08,17.09.08v9.8c0,1.88-1.52,3.41-3.39,3.41Z"/>
      <path class="st0" d="M158.27,47.29c-1.4,0-3.03-.02-4.93-.07-9.02-.25-10.95-4.17-11.03-4.33l-.08-.17v-9.25h-3.38v-1.65h5.04v10.5c.41.58,2.53,3.06,9.5,3.26,8.41.23,11.67-.18,11.7-.18l.22,1.64c-.1.01-2.1.27-7.04.27Z"/>
      <rect class="st0" x="100.03" y="32.67" width="1.65" height="4.09"/>
      <path class="st0" d="M119.89,47.08h-18.63v-8.79h21.5v5.93c0,1.58-1.29,2.87-2.87,2.87ZM102.91,45.42h16.97c.67,0,1.21-.54,1.21-1.21v-4.27h-18.19v5.48Z"/>
      <rect class="st0" x="111.18" y="39.76" width="1.65" height="5.85"/>
      <rect class="st0" x="103.03" y="35.38" width="6.82" height="1.29"/>
      <rect class="st0" x="103.01" y="32.77" width="6.82" height="1.29"/>
      <rect class="st0" x="114.15" y="35.38" width="6.76" height="1.29"/>
      <rect class="st0" x="114.13" y="32.77" width="6.76" height="1.29"/>
      <polygon class="st0" points="123.97 36.76 122.32 36.76 122.32 31.46 100.02 31.46 100.02 29.8 123.97 29.8 123.97 36.76"/>
      <rect class="st0" x="182.62" y="31.12" width="16.56" height="1.65"/>
      <path class="st0" d="M198.69,40.1h-19.36v-10.36h1.65v8.71h17.7c1.2,0,2.18-.9,2.18-2.01v-8.11h-21.57v-1.65h23.22v9.76c0,2.02-1.72,3.66-3.84,3.66Z"/>
      <path class="st0" d="M182.63,37.42l-.12-1.65c7.36-.52,7.56-5.27,7.53-6.21v-.49s1.65,0,1.65,0v.44c.03.74,0,7.28-9.06,7.92Z"/>
      <path class="st0" d="M199.17,37.47c-5.08-.05-8.09-2.63-8.74-5l1.6-.44c.5,1.85,3.12,3.74,7.16,3.78l-.02,1.65Z"/>
      <path class="st0" d="M179.44,47.09l-1.49-.73c1.25-2.55,1.67-4.62,1.67-4.64l1.62.32c-.02.09-.46,2.28-1.81,5.04Z"/>
      <path class="st0" d="M202.92,47.07c-.41-1.72-1.99-4.77-2-4.8l1.47-.76c.07.13,1.69,3.27,2.14,5.18l-1.61.38Z"/>
      <path class="st0" d="M194.59,43.47c-1.82-.23-6.32-.06-6.37-.06l-.06-1.65c.19,0,4.68-.17,6.63.07l-.2,1.64Z"/>
      <path class="st0" d="M186.82,47.14c-1.24,0-2.18-.33-2.8-.99-.66-.7-.7-1.52-.7-1.74l-.09-2.58,1.65-.06.09,2.64v.04h0s0,.32.27.58c.3.3.84.45,1.58.45,1.7,0,3.95-.03,5.76-.06,1.33-.02,2.47-.04,3.11-.04,1.18,0,1.78-.73,1.84-.93.13-.45.33-1.54.39-1.91l1.63.27c-.03.15-.25,1.48-.43,2.11-.3,1.04-1.67,2.12-3.43,2.12-.63,0-1.76.02-3.08.04-1.81.03-4.07.06-5.79.06Z"/>
      <path class="st0" d="M139.67,47.49l-1.23-1.11s3.47-3.82,4-4.4l1.22,1.12c-.53.58-3.99,4.39-3.99,4.39Z"/>
    </g>
  </g>
</svg>